<?xml version="1.0" encoding="utf-8"?>
<!-- Generator: Adobe Illustrator 21.0.0, SVG Export Plug-In . SVG Version: 6.00 Build 0)  -->
<svg version="1.1" xmlns="http://www.w3.org/2000/svg" xmlns:xlink="http://www.w3.org/1999/xlink" x="0px" y="0px"
	 viewBox="0 0 15.3 15.3" style="enable-background:new 0 0 15.3 15.3;" xml:space="preserve">
<style type="text/css">
	.st0{display:none;}
	.st1{display:inline;}
	.st2{clip-path:url(#SVGID_2_);fill:#B4B4B5;}
	.st3{clip-path:url(#SVGID_4_);fill:none;stroke:#B4B4B5;stroke-miterlimit:10;}
	.st4{fill:#666666;}
</style>
<g id="Layer_1" class="st0">
	<g class="st1">
		<defs>
			<path id="SVGID_1_" d="M-22.8-11.7c0,3.4,2.7,6.1,6.1,6.1c3.4,0,6.1-2.7,6.1-6.1c0-3.4-2.7-6.1-6.1-6.1
				C-20.1-17.8-22.8-15.1-22.8-11.7"/>
		</defs>
		<clipPath id="SVGID_2_">
			<use xlink:href="#SVGID_1_"  style="overflow:visible;"/>
		</clipPath>
		<path class="st2" d="M-14.5-12.8c0,1.2-1,2.2-2.2,2.2s-2.2-1-2.2-2.2c0-1.2,1-2.2,2.2-2.2S-14.5-14-14.5-12.8"/>
		<path class="st2" d="M-13.9-3.3c0,0.5-0.5,1-1,1h-3.7c-0.6,0-1-0.5-1-1v-6.4c0-0.5,0.4-1,1-1h3.7c0.5,0,1,0.5,1,1V-3.3z"/>
	</g>
	<g class="st1">
		<defs>
			<rect id="SVGID_3_" x="-23.3" y="-18.3" width="13.3" height="16"/>
		</defs>
		<clipPath id="SVGID_4_">
			<use xlink:href="#SVGID_3_"  style="overflow:visible;"/>
		</clipPath>
		<circle class="st3" cx="-16.7" cy="-11.7" r="6.1"/>
	</g>
</g>
<g id="Layer_2">
	<path class="st4" d="M7.6,0.4c-4,0-7.2,3.3-7.2,7.2c0,4,3.3,7.2,7.2,7.2c4,0,7.2-3.3,7.2-7.2C14.9,3.6,11.6,0.4,7.6,0.4z M10.7,13
		V9.8c0-0.6-0.5-1.1-1.1-1.1H8.3c1-0.3,1.8-1.2,1.8-2.3C10,5.1,9,4,7.6,4S5.3,5.1,5.3,6.4c0,1.1,0.7,2,1.8,2.3H5.6
		C5,8.7,4.5,9.2,4.5,9.8V13c-1.8-1.1-3.1-3-3.1-5.3c0-3.4,2.8-6.2,6.2-6.2c3.4,0,6.2,2.8,6.2,6.2C13.8,9.9,12.6,11.9,10.7,13z"/>
</g>
</svg>
